<svg xmlns="http://www.w3.org/2000/svg" viewBox="0 0 1445.34 1093.68"><defs><style>.cls-1,.cls-2,.cls-3{fill:#fff;}.cls-2{font-size:63.27px;font-family:Avenir-Medium, Avenir;font-weight:500;}.cls-3{font-size:77.4px;font-family:VIPHakmBold-VIPHakm, VIP Hakm Bold;}</style></defs><g id="Layer_2" data-name="Layer 2"><g id="Layer_1-2" data-name="Layer 1"><rect class="cls-1" x="47.11" y="504.62" width="37.34" height="41.22"/><path class="cls-1" d="M82,562V792.35c0,19.71-8.14,36.59-24.24,50.2-13.46,11-30.5,17.37-50.69,19.08l-4.89.42V828l4-.51C18.17,826,28,822.27,35.35,816.44c8.36-6.91,12.47-14.78,12.47-24.09V562Z"/><path class="cls-1" d="M552.17,710.57v73.91H125V484.07h34.15V750H518V710.57c0-21.09-7.64-39.3-22.72-54.14C480.66,642,463,634.44,442.78,634H382.42V597.76L519.39,473,517,522.17l-85.83,77.66h11.69c29.71.51,55.4,11.42,76.46,32.48,21.78,21.57,32.84,47.89,32.84,78.26"/><path class="cls-1" d="M672.55,562V792.35c0,19.71-8.17,36.59-24.27,50.2-13.46,11-30.5,17.37-50.69,19.08l-4.87.42V828l3.94-.51c12.08-1.53,21.93-5.26,29.26-11.09,8.38-6.91,12.47-14.81,12.47-24.09V562Z"/><polygon class="cls-1" points="956.09 836.36 1111.2 570.6 1039.18 444.28 884.59 711.67 956.09 836.36"/><polygon class="cls-1" points="1445.34 0 1205.41 413.35 871.41 413.35 794.4 549.28 722.95 423.14 800.04 289.42 1130.74 289.42 1227.03 125.72 1038.97 125.72 960.87 260.18 888.36 134.44 966.46 0 1445.34 0"/><text class="cls-2" transform="translate(6.46 969.98) scale(1 1.11)">RAKAZ GROUP</text><text class="cls-3" transform="translate(0 1063.37)">زاــــــــــكر ةــــــــــعوـمجم<tspan x="679.88" y="0"> </tspan></text></g></g></svg>