<svg xmlns="http://www.w3.org/2000/svg" viewBox="0 0 1818.24 365.46"><defs><style>.cls-1{font-size:77.67px;font-family:BrowalliaNew-Bold, BrowalliaNew Bold;font-weight:700;}.cls-1,.cls-2{fill:#fff;}</style></defs><g id="Layer_2" data-name="Layer 2"><g id="Layer_1-2" data-name="Layer 1"><text class="cls-1" transform="translate(1717.19 65.01)">TM</text><path class="cls-2" d="M364.51,147.91a60.18,60.18,0,0,0,11.67-22.3,69.83,69.83,0,0,0,2.29-25.53c-1.39-15-5.27-27.23-11.52-36.48a66,66,0,0,0-25.77-22.1C329.82,35.86,316,31.9,300,29.73a417.28,417.28,0,0,0-55.48-3.36H51.16L0,358.94H235.62a224.14,224.14,0,0,0,57.27-7.11c17.68-4.69,33.31-11.63,46.44-20.63A89.65,89.65,0,0,0,368.92,298c6.63-12.93,9.18-28.2,7.58-45.38a64.11,64.11,0,0,0-17.83-39.49c-24.82-26-74.36-30.1-74.36-30.1s33.84-6.07,59.41-18.26A61.74,61.74,0,0,0,364.51,147.91Zm-100.58,159c-13.25,12.64-31.25,19-53.49,19H90.49l20.57-133.12h86.42c8.21,0,16.79.41,25.5,1.23A77.81,77.81,0,0,1,248.86,201a58.56,58.56,0,0,1,21.27,17c6.08,7.78,9.77,18.26,11,31.16C283.45,274.42,277.67,293.84,263.93,306.93Zm2.81-155.77h0c-12.3,9.2-27.54,13.87-45.3,13.87H115.3L131.6,59.34h93.28c15.75,0,28.94,3.17,39.18,9.4,11.55,7,18.25,19.75,19.92,37.76C285.82,126.21,280,141.24,266.74,151.16Z"/><path class="cls-2" d="M544.64,159.16l-16.72,22,9.16-58.75H461.86l-36,236.58h83L523.93,259a164.28,164.28,0,0,1,7.37-29.26c3.05-8.65,7.81-16.88,15-25.87,26.79-33.71,78.3-19.68,96.91-13.13l17.59-74.65c-5.36-.39-10.7-.59-16-.59C578.64,115.54,545,158.72,544.64,159.16Z"/><path class="cls-2" d="M1598,26.37l-22.21,138.17-9.3-11.38c-.09-.11-11.61-13.76-35.49-24.6-10.07-4.58-33.36-11.71-60.17-11.71-17.92,0-37.41,3.18-55.59,12.44-19.35,9.85-34.15,21.64-45.26,36.07a131.5,131.5,0,0,0-23.82,50.43,179.51,179.51,0,0,0-4,58.24c2.63,28.33,13.53,50,33.32,66.35,18.49,15.26,44.66,23.17,82.36,24.9,59.78,2.79,85.41-28.91,85.66-29.23L1560,315.14l-6.72,43.8h67l50.3-319.4.36-.77a45,45,0,0,1,3-12.4Zm-33.39,225.45h0a114.6,114.6,0,0,1-14.4,37.19,90.24,90.24,0,0,1-27.38,28.51c-11.42,7.59-25.58,11.44-42.07,11.44a74.67,74.67,0,0,1-28.27-5.12,68.3,68.3,0,0,1-21.7-13.75,66.36,66.36,0,0,1-14.53-20.47,74.35,74.35,0,0,1-6.53-24.36,135,135,0,0,1,2-37.39,108,108,0,0,1,13.91-36.56,85.8,85.8,0,0,1,27.54-27.83,71.84,71.84,0,0,1,42.56-11.13c25.4,1.13,44.54,9.49,56.89,24.84,8,10,13,22.89,14.31,37.39A129.69,129.69,0,0,1,1564.58,251.82Z"/><path class="cls-2" d="M890.25,250.85A121.38,121.38,0,0,1,882,278.49a83.59,83.59,0,0,1-15.91,24.34A76.65,76.65,0,0,1,841.47,320c-9.74,4.37-21.33,6.59-34.42,6.59a62.46,62.46,0,0,1-30.76-8.18c-14-7.81-17.74-18.07-18.42-25.31-.18-1.91-.3-4.33-.36-7.2a76.47,76.47,0,0,1,.41-9.57c.31-2.95.62-5.82,1-8.62a49.59,49.59,0,0,1,1.48-7.88l21.06-137.39H706.49L684.11,264.84l-.08.33c-.51,2-1,4.85-1.63,8.39s-1.19,7.61-1.74,11.71-.91,7.92-1.09,11.73a65.74,65.74,0,0,0,0,8.78c1.37,14.74,5.55,59.58,85.9,59.58,57.76,0,97.44-39.89,97.83-40.3l15.83-16.19L870.46,359h64.19l36.53-236.57h-60.8Z"/><path class="cls-2" d="M1210.86,115.87c-57.75,0-97.43,39.9-97.82,40.3l-15.83,16.19,8.7-50.15h-64.19l-36.53,236.58H1066l20.13-128.41a121.23,121.23,0,0,1,8.22-27.64,83.38,83.38,0,0,1,15.91-24.34,76.58,76.58,0,0,1,24.64-17.17c9.75-4.38,21.33-6.6,34.43-6.6a62.46,62.46,0,0,1,30.76,8.18c14,7.81,17.74,18.07,18.42,25.31.17,1.91.29,4.33.36,7.2a76.47,76.47,0,0,1-.41,9.57c-.31,3-.62,5.82-1,8.62a49.23,49.23,0,0,1-1.48,7.87L1195,358.79h74.92l22.38-142.4.08-.33c.5-2,1.05-4.85,1.63-8.39s1.19-7.6,1.74-11.71.9-7.91,1.09-11.73a65.76,65.76,0,0,0,0-8.78C1295.39,160.71,1291.22,115.87,1210.86,115.87Z"/></g></g></svg>