<svg xmlns="http://www.w3.org/2000/svg" viewBox="0 0 1055.52 1044.76"><defs><style>.cls-1{fill:#fff;}</style></defs><g id="Layer_2" data-name="Layer 2"><g id="Layer_1-2" data-name="Layer 1"><path class="cls-1" d="M527.79,983.05c-257.06,0-465.44-206.23-465.44-460.67S270.73,61.69,527.79,61.69C718.26,61.69,882,175,954,337.2l8.72,21.05a452.79,452.79,0,0,1,16.53,51.89l7,32.74c.06.4.15.73.21,1.13l2.57,16.6a458.3,458.3,0,0,1,4.16,61.77c0,254.44-208.35,460.67-465.39,460.67m0-949.29C255.6,33.76,34.14,253,34.14,522.38S255.6,1011,527.79,1011s493.62-219.17,493.62-488.61S800,33.76,527.79,33.76"/><path class="cls-1" d="M527.79,1044.76C236.32,1044.76,0,810.91,0,522.38S236.32,0,527.79,0c216,0,401.63,128.46,483.35,312.4,0,0,23.49,62.6,28.58,82.69l7.93,37.14c.09.44.18.84.24,1.29l2.92,18.81a521.19,521.19,0,0,1,4.71,70.05c0,288.53-236.26,522.38-527.73,522.38m0-1037.14c-286.76,0-520,231-520,514.76s233.28,514.75,520,514.75,520-230.92,520-514.75S814.52,7.62,527.79,7.62"/><path class="cls-1" d="M313.45,957.08c66.47,31.3,137.63,48.48,215,48.48,271.81,0,492.18-215.7,492.18-481.85a471.63,471.63,0,0,0-40.23-191.13H954.17c29.76,59.27,42.25,119,42.25,191.12,0,252.38-210,457.69-468,457.69a475.08,475.08,0,0,1-139.33-20.72c-6.7-2-62.82-19.38-75.63-24.46Z"/><path class="cls-1" d="M980.21,332.56h-78l-9.8,2.37s69.11,152.44,23,290.2c-51.14,153-208,336.4-460,336.4a561.57,561.57,0,0,1-97.26-8.69l-17.87-2.08,16.64,19.87,74.2.59c8.17.33,16.24.52,24.29.52,116.42,0,225.08-38.93,314.2-112.57,73.32-60.55,127-145.4,155.54-230.77,39.88-119.33-2-238.77-18.87-284.6l2.19.63h76.16Z"/><polygon class="cls-1" points="998.68 421.32 898.17 344.05 902.83 337.96 1003.3 415.25 998.68 421.32"/><polygon class="cls-1" points="1005.87 461.97 916.84 393.89 919.85 386.5 1010.5 455.9 1005.87 461.97"/><polygon class="cls-1" points="1005.87 497.55 924.33 435.19 928.95 429.12 1010.5 491.48 1005.87 497.55"/><polygon class="cls-1" points="1005.87 533.12 928.1 473.66 932.78 467.58 1010.5 527.06 1005.87 533.12"/><polygon class="cls-1" points="1005.87 568.69 930.5 511.04 935.13 504.95 1010.5 562.62 1005.87 568.69"/><polygon class="cls-1" points="929.68 599.93 923.6 595.32 968.74 535.53 974.86 540.14 929.68 599.93"/><polygon class="cls-1" points="890.83 710.3 884.74 705.67 997.21 557.37 1003.3 561.99 890.83 710.3"/><polygon class="cls-1" points="807.53 901.68 770.78 851.91 776.93 847.38 813.65 897.13 807.53 901.68"/><polygon class="cls-1" points="838.81 870.41 802.06 820.64 808.23 816.09 844.95 865.84 838.81 870.41"/><polygon class="cls-1" points="870.09 839.11 833.37 789.35 839.51 784.78 876.23 834.56 870.09 839.11"/><polygon class="cls-1" points="901.36 807.84 859.26 751.34 865.4 746.77 907.51 803.26 901.36 807.84"/><polygon class="cls-1" points="927.34 769.19 884.68 710.2 890.89 705.74 933.55 764.71 927.34 769.19"/><polygon class="cls-1" points="954.2 731.97 912.6 675.21 918.77 670.67 960.38 727.43 954.2 731.97"/><rect class="cls-1" x="960.26" y="630.47" width="7.63" height="68.29" transform="translate(-206.52 693.72) rotate(-36.01)"/><polygon class="cls-1" points="998.76 644.43 967.4 601.14 973.57 596.68 1004.97 639.94 998.76 644.43"/><rect class="cls-1" x="748.25" y="867.39" width="41.52" height="7.64"/><rect class="cls-1" x="717.44" y="889.91" width="87.48" height="7.65"/><rect class="cls-1" x="665.16" y="914.26" width="117.59" height="7.65"/><rect class="cls-1" x="614.72" y="936.24" width="135.91" height="7.67"/><rect class="cls-1" x="548.27" y="958.21" width="138.16" height="7.65"/><rect class="cls-1" x="610.88" y="963.99" width="7.67" height="30.34"/><rect class="cls-1" x="576.83" y="962.03" width="7.67" height="38.49"/><rect class="cls-1" x="514.71" y="963.99" width="7.64" height="35.95"/><rect class="cls-1" x="479.19" y="963.99" width="7.64" height="36.53"/><rect class="cls-1" x="542.8" y="957.08" width="7.64" height="42.26"/><path class="cls-1" d="M436.8,902.63c14-19.37,63.64-86.16,73.47-94.78,8.51-7.45,15.39-23.42,24.6-30,58.9-31.82,104.75-80,119-101.82,0,0,63.52,18.44,177.75,10.5,0,0,5.76,4.29,2.16,9.39,0,0-34.43,32-47.83,67.34-8,21.15-16.33,45.41-29.2,67.44-20.57,35.39-36.2,42.87-61,72.12,0,0,37.22-19.42,44.89-25C796,837.39,854,800.7,895,683.77c0,0,11.79-28.75-11.58-46.93C870,626.36,859.26,624.65,845,619.18c-23.9-9.14-56.93-26.42-94-33.11-13.73-2.46-45.94-7-62.3-10.66-14.16-3.18-11.35-13.94-18.63-36.57s-18.49-35.28-18.7-65.51c-.12-21.36-9.54-44.56-9.54-44.56a215.47,215.47,0,0,0,53.58-5.87c22-5.49,37.33-4.54,49-4.67,33.71-.26,110-26.27,130.58-31.73,14.57-3.88,26.36-2.87,30.37-3.35,14.1-1.59,8.69-14.19,8.78-19.51,0-3.32-.35-6.46,2.75-12.51a16,16,0,0,1,6.76-6.72s34.26-4.21,16.27-11.86c-1.93-.8-4.83-6-6.91-6.47-14.45-3.16-42.34,3.69-45.2,6.47-3.19,3.13-11.68,11.12-17,18.39-10.3,14-23,15.14-26.51,15.93-29,6.67-49.8-2.56-68.61-2.34-31.84.38-55.36,7.2-55.36,7.2-20.89,4.5-52.25-7.39-73.23-10.07C612.79,357.27,602,340.77,611,339.79c23-2.59,17.24-39.37,28.71-56.13,0,0,19.16-24,15.3-36.56-3.19-10.3-52.49-34.41-83.54-20.86-16,7-27.94,43.61-32.09,64.72-4.36,22.28-42.08,38.59-55.68,48s-36.22,34.54-7.87,88.51c2.54,4.84,58.9,92.66,75.34,110.23,11.82,12.67,17,16.94,18.81,22.7,2.31,7.48-.26,24.24-2.75,30.42-7.75,19.22-2.05,44.84-4.21,48.62-5,8.62-38.71,30.61-64.95,80.65C481,752.67,472.46,760.8,453,781c-8.61,8.94-29.88,50.78-40.79,89.81-9.95,35.73-10.56,21.69-20.71,39.23a125.79,125.79,0,0,0-10.27,23.73c-3.25,10.85-8.4,23.07-8.28,29.62.11,3.79,23.26,3.91,61.94,6.88,0,0-12.2-48.23,1.87-67.62"/></g></g></svg>