<svg xmlns="http://www.w3.org/2000/svg" viewBox="0 0 140.56 147.15"><defs><style>.cls-1{fill:#231f20;}</style></defs><g id="Layer_2" data-name="Layer 2"><g id="Layer_1-2" data-name="Layer 1"><path class="cls-1" d="M135.12,88.27a25.79,25.79,0,0,0-18.58-7.5H108l2.6,8.86h6.32c10.39,0,18.8,7.17,18.8,16,0,7.76-6.49,12.89-15.1,14.35-7.22,1.11-9.87-5.48-10.3-7L102.55,84.6l-1-3.83-1.25-4.52,11.5-11.33c4.28-4.28,6.91-10.1,7.25-14,.9-10.18-7.65-16.27-14.76-16.27a15.17,15.17,0,0,0-13.31,7.63h0a19.77,19.77,0,0,0-2.61,8.31v0a20.13,20.13,0,0,0,.36,5.53L89,57.72l10.79,56.07c.78,3.74-.46,6.46-3.86,6.51H94v1.41h22.53a27.66,27.66,0,0,0,8.78-1.41c8.92-3,15.24-10.4,15.24-19.06A18.64,18.64,0,0,0,135.12,88.27ZM97.8,67.69l-1.09-3.86c-1.24-4.76-2.14-13.64,2.7-20.64,3.26-4.73,9.21-5.8,12.19-2.16C117.44,48.16,97.8,67.69,97.8,67.69Z"/><path class="cls-1" d="M52.24,50.64v0a19.77,19.77,0,0,0-2.61-8.31h0a15.17,15.17,0,0,0-13.31-7.63c-7.11,0-15.66,6.09-14.76,16.27.34,3.9,3,9.72,7.25,14l11.5,11.33-1.25,4.52L38,84.6l-7.78,28.34c-.43,1.57-3.08,8.16-10.3,7-8.61-1.46-15.1-6.59-15.1-14.35,0-8.84,8.41-16,18.8-16H30l2.6-8.86H24a25.79,25.79,0,0,0-18.58,7.5,18.64,18.64,0,0,0-5.44,13c0,8.66,6.32,16.07,15.24,19.06A27.66,27.66,0,0,0,24,121.71H46.55V120.3H44.64c-3.4,0-4.64-2.77-3.86-6.51L51.57,57.72l.31-1.55A20.13,20.13,0,0,0,52.24,50.64ZM43.85,63.83l-1.09,3.86S23.12,48.16,29,41c3-3.64,8.93-2.57,12.19,2.16C46,50.19,45.09,59.07,43.85,63.83Z"/><path class="cls-1" d="M84.62,72.61a19.91,19.91,0,0,0-4.24-3Q78,68.38,75.53,67.3c-1.65-.72-4.46-1.87-6-2.57a27.47,27.47,0,0,1-4.26-2.31,11.49,11.49,0,0,1-1.51-1.19,5,5,0,0,1-1.12-2.09c-.77-2.86,1.55-5.79,1.65-6h0l5.83-7.86c1.24,1.41,2.77,3.23,4.24,5.16l1,1.34c2.51,3.47,4.56,7.1,4.2,9.3A7.69,7.69,0,0,1,77.88,65c-.38.44.05.47.05.47a9.23,9.23,0,0,0,4.88-7.16h0a12.32,12.32,0,0,0-.55-5.39v0a13.35,13.35,0,0,0-1.55-3.09L80.16,49l-2.89-4h0l-3.7-5.1a39,39,0,0,0,3.67-5.46,38.54,38.54,0,0,0,5.45-19.63C82.62,6.25,77.11,0,70.28,0S57.93,6.25,57.87,14.78a38.54,38.54,0,0,0,5.44,19.63A39.46,39.46,0,0,0,67,39.87L58.41,51.6a18.87,18.87,0,0,0-1.6,2.24,9.4,9.4,0,0,0-1.1,4.8,8.62,8.62,0,0,0,1.93,5.93,18.9,18.9,0,0,0,5,4.13A48.19,48.19,0,0,0,69,71.86a55.12,55.12,0,0,1,6.4,3,19.22,19.22,0,0,1,4.93,3.82,8,8,0,0,1,2,5.49,7.8,7.8,0,0,1-1.2,4.28l-.1.15L70.57,102.92l-7-9.09h0c-.85-1.11-1.66-2.15-2.33-3-4-5-6.42-9.79-6-12.55A6.58,6.58,0,0,1,57,74.81c.38-.44,0-.47,0-.47A9.26,9.26,0,0,0,52,81.5h0a12.32,12.32,0,0,0,.54,5.39v0A13,13,0,0,0,54.15,90l.55.82,12.4,16.68a43.9,43.9,0,0,0-3.48,5.22,38.6,38.6,0,0,0-5.45,19.63c.07,8.54,5.58,14.78,12.41,14.79S82.93,140.9,83,132.36a38.59,38.59,0,0,0-5.44-19.63,40.3,40.3,0,0,0-3.68-5.46L86.14,90.53a10.72,10.72,0,0,0,.68-.94l0,0h0A12.53,12.53,0,0,0,87.7,88a13.21,13.21,0,0,0,1.12-5.93,12.52,12.52,0,0,0-1.19-5.48A13.9,13.9,0,0,0,84.62,72.61ZM60.88,14.28c-.06-7.37,3.94-11.69,9.38-11.69h0c5.44,0,9.44,4.32,9.38,11.69-.09,10.6-9.33,21-9.39,21.09h0C70.21,35.28,61,24.88,60.88,14.28Zm9.51,97.65h0c.06.1,9.3,10.49,9.39,21.09.06,7.37-3.94,11.68-9.38,11.68h0c-5.44,0-9.44-4.31-9.38-11.68C61.08,122.43,70.33,112,70.39,111.93Z"/></g></g></svg>